HIERARCHY
ROOT SpineBase
{
  OFFSET 0.000000 0.000000 0.000000
  CHANNELS 6 Xposition Yposition Zposition Zrotation Xrotation Yrotation
  JOINT SpineMid
  {
    OFFSET 0.000000 32.606829 0.000000
    CHANNELS 3 Zrotation Xrotation Yrotation
    JOINT SpineShoulder
    {
      OFFSET 0.242100 24.155597 -0.745073
      CHANNELS 3 Zrotation Xrotation Yrotation
      JOINT Neck
      {
        OFFSET 0.183736 7.967084 -0.569267
        CHANNELS 3 Zrotation Xrotation Yrotation
        JOINT Head
        {
          OFFSET 3.789859 10.768942 5.890783
          CHANNELS 3 Zrotation Xrotation Yrotation
          End Site
          {
            OFFSET 0 0 0
          }
        }
      }
      JOINT ShoulderLeft
      {
        OFFSET -1.707252 -5.148929 -15.539312
        CHANNELS 3 Zrotation Xrotation Yrotation
        JOINT ElbowLeft
        {
          OFFSET 7.844558 -27.106024 -2.484189
          CHANNELS 3 Zrotation Xrotation Yrotation
          JOINT WristLeft
          {
            OFFSET -5.129600 14.283186 -9.251681
            CHANNELS 3 Zrotation Xrotation Yrotation
            JOINT HandLeft
            {
              OFFSET -1.489426 4.684429 4.280442
              CHANNELS 3 Zrotation Xrotation Yrotation
              JOINT HandTipLeft
              {
                OFFSET -0.124932 4.833224 0.060642
                CHANNELS 3 Zrotation Xrotation Yrotation
                End Site
                {
                  OFFSET 0 0 0
                }
              }
              JOINT ThumbLeft
              {
                OFFSET -3.659050 -3.098419 0.158308
                CHANNELS 3 Zrotation Xrotation Yrotation
                End Site
                {
                  OFFSET 0 0 0
                }
              }
            }
          }
        }
      }
      JOINT ShoulderRight
      {
        OFFSET 7.114632 -8.731218 9.488120
        CHANNELS 3 Zrotation Xrotation Yrotation
        JOINT ElbowRight
        {
          OFFSET 3.341607 -19.672234 -6.402757
          CHANNELS 3 Zrotation Xrotation Yrotation
          JOINT WristRight
          {
            OFFSET 3.591796 -24.262342 2.530699
            CHANNELS 3 Zrotation Xrotation Yrotation
            JOINT HandRight
            {
              OFFSET 0.050560 -3.083608 -7.198448
              CHANNELS 3 Zrotation Xrotation Yrotation
              JOINT HandTipRight
              {
                OFFSET -0.350595 -6.666065 -2.615703
                CHANNELS 3 Zrotation Xrotation Yrotation
                End Site
                {
                  OFFSET 0 0 0
                }
              }
              JOINT ThumbRight
              {
                OFFSET -1.218282 1.072480 -7.722261
                CHANNELS 3 Zrotation Xrotation Yrotation
                End Site
                {
                  OFFSET 0 0 0
                }
              }
            }
          }
        }
      }
    }
  }
  JOINT HipLeft
  {
    OFFSET -1.370555 1.316434 -8.484227
    CHANNELS 3 Zrotation Xrotation Yrotation
    JOINT KneeLeft
    {
      OFFSET -3.307150 -33.721291 -2.164688
      CHANNELS 3 Zrotation Xrotation Yrotation
      JOINT AnkleLeft
      {
        OFFSET -8.860916 -35.764213 1.948817
        CHANNELS 3 Zrotation Xrotation Yrotation
        JOINT FootLeft
        {
          OFFSET 9.603661 -3.049036 -6.001142
          CHANNELS 3 Zrotation Xrotation Yrotation
          End Site
          {
            OFFSET 0 0 0
          }
        }
      }
    }
  }
  JOINT HipRight
  {
    OFFSET 3.704135 0.554289 1.345120
    CHANNELS 3 Zrotation Xrotation Yrotation
    JOINT KneeRight
    {
      OFFSET -3.285417 -32.780284 14.416114
      CHANNELS 3 Zrotation Xrotation Yrotation
      JOINT AnkleRight
      {
        OFFSET -13.585917 -37.990812 -2.601058
        CHANNELS 3 Zrotation Xrotation Yrotation
        JOINT FootRight
        {
          OFFSET 3.390870 -5.489934 1.116920
          CHANNELS 3 Zrotation Xrotation Yrotation
          End Site
          {
            OFFSET 0 0 0
          }
        }
      }
    }
  }
}
MOTION
Frames: 13
Frame Time: 0.033333
-105.093155 78.401025 315.401017 0.166977 0.091298 -64.755891 0.011367 -0.189967 64.755777 -0.000000 0.000000 0.000000 1.721083 0.768793 -1.225574 0.000000 0.000000 0.000000 -9.442717 4.870069 2.734274 -153.043999 -20.063348 157.056261 102.280003 -65.462834 106.099961 -9.153174 58.558374 -118.612596 0.000000 0.000000 0.000000 0.000000 0.000000 0.000000 -22.121950 32.196318 18.111938 24.407544 -62.250468 -2.259750 -6.138649 -42.729210 -4.168150 10.691003 11.974968 -1.227629 0.000000 0.000000 0.000000 0.000000 0.000000 0.000000 0.011367 -0.189967 64.755777 -0.610611 -0.646855 0.123345 0.367952 0.234014 -0.959019 0.000000 0.000000 0.000000 3.719363 -1.223675 65.456626 -2.100404 3.789881 -0.424447 -10.215192 11.001161 5.908258 0.000000 0.000000 0.000000
-105.040973 78.498038 315.423036 0.186524 0.112106 -64.961862 0.022629 -0.216441 64.961722 -0.000000 0.000000 0.000000 1.386289 1.037358 -1.135166 0.000000 0.000000 0.000000 -9.349903 4.856436 2.715695 -153.230560 -20.275243 157.006110 105.021368 -64.517761 108.653413 -15.406600 60.262442 -121.527681 0.000000 0.000000 0.000000 0.000000 0.000000 0.000000 -22.252921 32.775735 18.373475 27.869112 -64.859829 0.615408 -6.323246 -39.241563 0.886667 10.476736 9.898681 -4.370572 0.000000 0.000000 0.000000 0.000000 0.000000 0.000000 0.022629 -0.216441 64.961722 -0.672465 -0.637049 0.117248 0.429240 0.209083 -1.000858 0.000000 0.000000 0.000000 3.679844 -1.308218 65.625475 -1.999238 4.118916 -0.510152 -10.257885 10.378622 5.759364 0.000000 0.000000 0.000000
-105.002345 78.566142 315.462934 0.161532 0.130343 -65.098593 0.050211 -0.201397 65.098498 -0.000000 0.000000 0.000000 0.810676 1.375644 -0.933513 0.000000 0.000000 0.000000 -9.249907 4.892853 2.714927 -153.239676 -20.552360 157.224628 107.883204 -63.152095 111.259655 -22.089529 61.536406 -121.736665 0.000000 0.000000 0.000000 0.000000 0.000000 0.000000 -24.127424 35.150916 20.307676 31.259746 -68.034413 3.238115 -6.139478 -36.880271 5.142682 10.208462 4.398468 -7.239129 0.000000 0.000000 0.000000 0.000000 0.000000 0.000000 0.050211 -0.201397 65.098498 -0.699903 -0.628804 0.113608 0.447690 0.189129 -1.017361 0.000000 0.000000 0.000000 3.450480 -1.286199 65.686915 -1.795566 3.958652 -0.489947 -10.983923 10.348797 5.762923 0.000000 0.000000 0.000000
-104.968835 78.616767 315.518350 0.113337 0.143468 -65.315474 0.083026 -0.162896 65.315450 -0.000000 0.000000 0.000000 0.603613 1.609871 -0.899993 0.000000 0.000000 0.000000 -9.136612 4.997231 2.737637 -153.424109 -20.783709 157.250847 109.256286 -61.060467 112.851203 -24.929499 62.524647 -121.243837 0.000000 0.000000 0.000000 0.000000 0.000000 0.000000 -23.367147 34.616432 19.651891 36.237419 -71.348864 7.745594 -6.859878 -36.787085 5.269044 10.716104 3.645577 -6.883366 0.000000 0.000000 0.000000 0.000000 0.000000 0.000000 0.083026 -0.162896 65.315450 -0.724468 -0.626637 0.111609 0.455953 0.181585 -1.000665 0.000000 0.000000 0.000000 2.958986 -1.116878 65.791183 -1.502916 3.180209 -0.345977 -12.111689 11.324001 6.250053 0.000000 0.000000 0.000000
-104.923071 78.660371 315.547851 0.080600 0.178820 -65.486345 0.129260 -0.147529 65.486385 -0.000000 0.000000 0.000000 0.526223 1.800722 -0.923429 0.000000 0.000000 0.000000 -9.037856 5.182678 2.792556 -153.923968 -21.002341 156.898517 109.487912 -58.052693 113.881176 -26.685598 64.100155 -122.881361 0.000000 0.000000 0.000000 0.000000 0.000000 0.000000 -20.662974 31.790543 17.099539 31.151017 -68.465085 3.870161 -6.459244 -38.009693 4.247051 11.181985 3.372916 -6.502995 0.000000 0.000000 0.000000 0.000000 0.000000 0.000000 0.129260 -0.147529 65.486385 -0.757843 -0.598590 0.102855 0.473723 0.151420 -0.968222 0.000000 0.000000 0.000000 2.335201 -0.850195 65.854231 -1.317031 1.947170 -0.104439 -13.399419 12.454934 6.607022 0.000000 0.000000 0.000000
-104.909374 78.686576 315.621968 -0.001279 0.188652 -65.972533 0.172827 -0.075646 65.972649 -0.000000 0.000000 0.000000 0.497864 1.907852 -0.944930 0.000000 0.000000 0.000000 -8.993540 5.425019 2.876473 -154.429240 -21.115021 156.463685 112.351836 -55.337652 116.815531 -29.823973 66.676306 -122.249936 0.000000 0.000000 0.000000 0.000000 0.000000 0.000000 -16.477666 26.280099 13.085149 21.350854 -59.017217 -2.879104 -5.040682 -40.760906 1.729235 11.370741 4.648139 -5.508332 0.000000 0.000000 0.000000 0.000000 0.000000 0.000000 0.172827 -0.075646 65.972649 -0.747824 -0.539030 0.089116 0.439281 0.086328 -0.924126 0.000000 0.000000 0.000000 2.022334 -0.643951 66.277526 -1.182295 1.572610 -0.068845 -14.126451 12.328014 6.471391 0.000000 0.000000 0.000000
-104.899713 78.713374 315.759880 -0.104295 0.155543 -66.621263 0.184158 0.034013 66.621350 -0.000000 0.000000 0.000000 0.324561 2.200030 -0.949069 0.000000 0.000000 0.000000 -8.981856 5.681307 2.970331 -155.171211 -21.155850 155.689856 114.550538 -51.697874 119.366794 -32.486416 69.789961 -121.665507 0.000000 0.000000 0.000000 0.000000 0.000000 0.000000 -11.703899 18.727271 8.638749 14.427559 -46.078051 -5.384401 -2.952565 -42.882164 2.196671 10.946651 2.647357 -6.394129 0.000000 0.000000 0.000000 0.000000 0.000000 0.000000 0.184158 0.034013 66.621350 -0.721525 -0.453434 0.070047 0.383636 -0.006717 -0.870988 0.000000 0.000000 0.000000 1.778798 -0.477396 66.864898 -1.086389 1.522726 -0.092943 -14.980955 12.455730 6.735004 0.000000 0.000000 0.000000
-104.912629 78.729908 315.909369 -0.234509 0.119990 -67.263640 0.201302 0.169911 67.263587 -0.000000 0.000000 0.000000 0.209472 2.365115 -0.941325 0.000000 0.000000 0.000000 -9.002956 5.870839 3.044275 -156.030531 -21.167925 154.710062 115.341078 -48.982004 120.741281 -35.060469 69.693230 -114.970451 0.000000 0.000000 0.000000 0.000000 0.000000 0.000000 -5.478002 5.024650 2.860685 7.666828 -26.581278 -4.485630 -1.113290 -34.323346 4.401937 9.672466 -3.390778 -7.214657 0.000000 0.000000 0.000000 0.000000 0.000000 0.000000 0.201302 0.169911 67.263587 -0.000000 0.000000 0.000000 -0.375911 -0.461068 -0.727151 0.000000 0.000000 0.000000 1.596827 -0.266105 67.469887 -1.095259 1.753257 -0.215497 -14.655953 10.823780 5.784189 0.000000 0.000000 0.000000
-104.948382 78.728497 316.081417 -0.399573 0.070850 -67.846893 0.216294 0.343360 67.846492 -0.000000 0.000000 0.000000 0.040611 2.509871 -0.895890 0.000000 0.000000 0.000000 -9.095633 6.052827 3.126640 -155.911386 -21.306249 154.867830 115.642776 -48.437145 121.133854 -32.072872 69.754531 -114.744774 0.000000 0.000000 0.000000 0.000000 0.000000 0.000000 -2.310410 -1.342638 0.500543 1.388317 -11.847447 -2.660984 2.146767 -39.100142 5.501800 7.259523 5.676166 -7.418798 0.000000 0.000000 0.000000 0.000000 0.000000 0.000000 0.216294 0.343360 67.846492 -0.000000 0.000000 0.000000 -0.427262 -0.457968 -0.615307 0.000000 0.000000 0.000000 1.343647 -0.108559 67.968236 -0.905167 1.917585 -0.287786 -13.745484 9.006363 4.749117 0.000000 0.000000 0.000000
-105.015970 78.798226 316.280460 -0.647726 0.026151 -68.382681 -0.369730 -0.130389 68.352875 -0.165735 0.155027 -0.055391 -0.054475 2.361766 -0.269044 0.000000 0.000000 0.000000 -8.252414 5.762877 3.248820 -156.542191 -21.116412 153.868333 115.614779 -47.342641 121.641798 -32.857801 70.523065 -114.906035 0.000000 0.000000 0.000000 0.000000 0.000000 0.000000 -0.295270 -4.131247 -0.140067 -3.311090 0.252405 -0.700304 5.250009 -44.204495 11.035850 6.773496 12.588660 -12.444945 0.000000 0.000000 0.000000 0.000000 0.000000 0.000000 0.262946 0.592533 68.381469 -0.000000 0.000000 0.000000 -0.000000 0.000000 0.000000 0.000000 0.000000 0.000000 0.262946 0.592533 68.381469 -0.766959 1.011565 -0.301570 -12.825912 7.651764 4.074325 0.000000 0.000000 0.000000
-105.116871 78.830371 316.550805 -1.000611 -0.070946 -68.983186 -0.494997 -0.121749 68.942546 -0.261289 0.175165 -0.078116 0.470983 2.629989 -0.361749 0.000000 0.000000 0.000000 -8.102729 5.879255 3.391677 -158.033346 -20.668065 151.644563 113.496733 -46.207140 121.136611 -29.383897 71.035017 -118.752373 0.000000 0.000000 0.000000 0.000000 0.000000 0.000000 -0.900441 0.432567 1.090058 -5.303862 5.211956 -0.567838 6.756734 -49.003640 21.308205 11.444103 17.475668 -24.462241 0.000000 0.000000 0.000000 0.000000 0.000000 0.000000 0.292669 0.959483 68.980116 -0.000000 0.000000 0.000000 -0.000000 0.000000 0.000000 0.000000 0.000000 0.000000 0.292669 0.959483 68.980116 -0.621159 1.839662 -0.603599 -10.696492 2.574587 1.233812 0.000000 0.000000 0.000000
-105.328407 78.947684 316.498102 -1.368643 0.170877 -68.826407 -0.510947 -0.199513 68.772420 -0.362934 0.256212 -0.107105 1.253109 2.830261 -0.613072 0.000000 0.000000 0.000000 -8.046063 5.812821 3.559980 -160.587687 -19.882111 147.953014 108.461568 -45.589943 119.376960 -21.376863 68.459781 -121.040379 0.000000 0.000000 0.000000 0.000000 0.000000 0.000000 -4.082684 10.046552 4.451744 -4.074141 2.955305 -2.968283 9.755319 -59.271014 31.187538 24.962495 26.338703 -40.630206 0.000000 0.000000 0.000000 0.000000 0.000000 0.000000 0.653756 1.214514 68.821519 -0.000000 0.000000 0.000000 -0.674826 -0.454549 -0.109054 0.000000 0.000000 0.000000 0.653756 1.214514 68.821519 -0.246084 1.834179 -0.634002 -10.707755 4.738418 2.999690 0.000000 0.000000 0.000000
-105.457671 79.153998 316.498046 -1.887037 0.480783 -68.684921 -0.264453 -0.126313 68.623317 -0.010005 0.120946 -0.095541 2.548615 3.020026 -1.385858 0.000000 0.000000 0.000000 -8.809743 5.952665 3.723562 -166.178643 -18.523118 140.360070 99.138719 -43.624596 117.468682 -12.889253 61.809003 -117.039360 0.000000 0.000000 0.000000 0.000000 0.000000 0.000000 -11.198201 21.841868 10.423177 0.047700 -3.684229 -6.386604 24.949212 -75.366513 49.033913 45.608894 37.955577 -60.620159 0.000000 0.000000 0.000000 0.000000 0.000000 0.000000 0.284094 1.227092 68.674217 1.455032 -1.074815 0.186859 -1.518749 -0.091255 -0.363203 0.000000 0.000000 0.000000 0.865563 0.687441 68.280639 0.995245 1.313605 -0.044528 -10.320480 5.076214 2.811699 0.000000 0.000000 0.000000
